<mxfile host="Electron" agent="Mozilla/5.0 (Macintosh; Intel Mac OS X 10_15_7) AppleWebKit/537.36 (KHTML, like Gecko) draw.io/26.0.16 Chrome/132.0.6834.196 Electron/34.2.0 Safari/537.36" version="26.0.16">
  <diagram name="Page-1" id="voDygxMf9uxAcZDvadWi">
    <mxGraphModel dx="1720" dy="999" grid="0" gridSize="10" guides="1" tooltips="1" connect="1" arrows="1" fold="1" page="1" pageScale="1" pageWidth="1600" pageHeight="1200" math="0" shadow="0">
      <root>
        <mxCell id="0" />
        <mxCell id="1" parent="0" />
        <mxCell id="XrexaI2c7xQN46WVtd9s-1" value="&lt;font style=&quot;font-weight: bold; font-size: 20px;&quot;&gt;DATA MART &lt;/font&gt;&lt;font style=&quot;font-size: 15px;&quot;&gt;(STAR SCHEMA)&lt;/font&gt;" style="text;html=1;align=center;verticalAlign=middle;whiteSpace=wrap;rounded=0;" vertex="1" parent="1">
          <mxGeometry x="60" y="50" width="270" height="30" as="geometry" />
        </mxCell>
        <mxCell id="XrexaI2c7xQN46WVtd9s-65" value="" style="group;rounded=1;fontSize=14;" vertex="1" connectable="0" parent="1">
          <mxGeometry x="990" y="250" width="180" height="360" as="geometry" />
        </mxCell>
        <mxCell id="XrexaI2c7xQN46WVtd9s-31" value="gold.dim_products" style="shape=table;startSize=30;container=1;collapsible=1;childLayout=tableLayout;fixedRows=1;rowLines=0;fontStyle=1;align=center;resizeLast=1;html=1;fillColor=#fff2cc;strokeColor=#d6b656;fontSize=14;" vertex="1" parent="XrexaI2c7xQN46WVtd9s-65">
          <mxGeometry width="180" height="360" as="geometry" />
        </mxCell>
        <mxCell id="XrexaI2c7xQN46WVtd9s-32" value="" style="shape=tableRow;horizontal=0;startSize=0;swimlaneHead=0;swimlaneBody=0;fillColor=none;collapsible=0;dropTarget=0;points=[[0,0.5],[1,0.5]];portConstraint=eastwest;top=0;left=0;right=0;bottom=1;fontSize=14;" vertex="1" parent="XrexaI2c7xQN46WVtd9s-31">
          <mxGeometry y="30" width="180" height="30" as="geometry" />
        </mxCell>
        <mxCell id="XrexaI2c7xQN46WVtd9s-33" value="PK" style="shape=partialRectangle;connectable=0;fillColor=none;top=0;left=0;bottom=0;right=0;fontStyle=1;overflow=hidden;whiteSpace=wrap;html=1;fontSize=14;" vertex="1" parent="XrexaI2c7xQN46WVtd9s-32">
          <mxGeometry width="25.75" height="30" as="geometry">
            <mxRectangle width="25.75" height="30" as="alternateBounds" />
          </mxGeometry>
        </mxCell>
        <mxCell id="XrexaI2c7xQN46WVtd9s-34" value="product_key" style="shape=partialRectangle;connectable=0;fillColor=none;top=0;left=0;bottom=0;right=0;align=left;spacingLeft=6;fontStyle=5;overflow=hidden;whiteSpace=wrap;html=1;fontSize=14;" vertex="1" parent="XrexaI2c7xQN46WVtd9s-32">
          <mxGeometry x="25.75" width="154.25" height="30" as="geometry">
            <mxRectangle width="154.25" height="30" as="alternateBounds" />
          </mxGeometry>
        </mxCell>
        <mxCell id="XrexaI2c7xQN46WVtd9s-35" value="" style="shape=tableRow;horizontal=0;startSize=0;swimlaneHead=0;swimlaneBody=0;fillColor=none;collapsible=0;dropTarget=0;points=[[0,0.5],[1,0.5]];portConstraint=eastwest;top=0;left=0;right=0;bottom=0;fontSize=14;" vertex="1" parent="XrexaI2c7xQN46WVtd9s-31">
          <mxGeometry y="60" width="180" height="30" as="geometry" />
        </mxCell>
        <mxCell id="XrexaI2c7xQN46WVtd9s-36" value="" style="shape=partialRectangle;connectable=0;fillColor=none;top=0;left=0;bottom=0;right=0;editable=1;overflow=hidden;whiteSpace=wrap;html=1;fontSize=14;" vertex="1" parent="XrexaI2c7xQN46WVtd9s-35">
          <mxGeometry width="25.75" height="30" as="geometry">
            <mxRectangle width="25.75" height="30" as="alternateBounds" />
          </mxGeometry>
        </mxCell>
        <mxCell id="XrexaI2c7xQN46WVtd9s-37" value="product_id" style="shape=partialRectangle;connectable=0;fillColor=none;top=0;left=0;bottom=0;right=0;align=left;spacingLeft=6;overflow=hidden;whiteSpace=wrap;html=1;fontSize=14;" vertex="1" parent="XrexaI2c7xQN46WVtd9s-35">
          <mxGeometry x="25.75" width="154.25" height="30" as="geometry">
            <mxRectangle width="154.25" height="30" as="alternateBounds" />
          </mxGeometry>
        </mxCell>
        <mxCell id="XrexaI2c7xQN46WVtd9s-38" value="" style="shape=tableRow;horizontal=0;startSize=0;swimlaneHead=0;swimlaneBody=0;fillColor=none;collapsible=0;dropTarget=0;points=[[0,0.5],[1,0.5]];portConstraint=eastwest;top=0;left=0;right=0;bottom=0;fontSize=14;" vertex="1" parent="XrexaI2c7xQN46WVtd9s-31">
          <mxGeometry y="90" width="180" height="30" as="geometry" />
        </mxCell>
        <mxCell id="XrexaI2c7xQN46WVtd9s-39" value="" style="shape=partialRectangle;connectable=0;fillColor=none;top=0;left=0;bottom=0;right=0;editable=1;overflow=hidden;whiteSpace=wrap;html=1;fontSize=14;" vertex="1" parent="XrexaI2c7xQN46WVtd9s-38">
          <mxGeometry width="25.75" height="30" as="geometry">
            <mxRectangle width="25.75" height="30" as="alternateBounds" />
          </mxGeometry>
        </mxCell>
        <mxCell id="XrexaI2c7xQN46WVtd9s-40" value="product_number" style="shape=partialRectangle;connectable=0;fillColor=none;top=0;left=0;bottom=0;right=0;align=left;spacingLeft=6;overflow=hidden;whiteSpace=wrap;html=1;fontSize=14;" vertex="1" parent="XrexaI2c7xQN46WVtd9s-38">
          <mxGeometry x="25.75" width="154.25" height="30" as="geometry">
            <mxRectangle width="154.25" height="30" as="alternateBounds" />
          </mxGeometry>
        </mxCell>
        <mxCell id="XrexaI2c7xQN46WVtd9s-41" value="" style="shape=tableRow;horizontal=0;startSize=0;swimlaneHead=0;swimlaneBody=0;fillColor=none;collapsible=0;dropTarget=0;points=[[0,0.5],[1,0.5]];portConstraint=eastwest;top=0;left=0;right=0;bottom=0;fontSize=14;" vertex="1" parent="XrexaI2c7xQN46WVtd9s-31">
          <mxGeometry y="120" width="180" height="30" as="geometry" />
        </mxCell>
        <mxCell id="XrexaI2c7xQN46WVtd9s-42" value="" style="shape=partialRectangle;connectable=0;fillColor=none;top=0;left=0;bottom=0;right=0;editable=1;overflow=hidden;whiteSpace=wrap;html=1;fontSize=14;" vertex="1" parent="XrexaI2c7xQN46WVtd9s-41">
          <mxGeometry width="25.75" height="30" as="geometry">
            <mxRectangle width="25.75" height="30" as="alternateBounds" />
          </mxGeometry>
        </mxCell>
        <mxCell id="XrexaI2c7xQN46WVtd9s-43" value="product_name" style="shape=partialRectangle;connectable=0;fillColor=none;top=0;left=0;bottom=0;right=0;align=left;spacingLeft=6;overflow=hidden;whiteSpace=wrap;html=1;fontSize=14;" vertex="1" parent="XrexaI2c7xQN46WVtd9s-41">
          <mxGeometry x="25.75" width="154.25" height="30" as="geometry">
            <mxRectangle width="154.25" height="30" as="alternateBounds" />
          </mxGeometry>
        </mxCell>
        <mxCell id="XrexaI2c7xQN46WVtd9s-176" value="" style="shape=tableRow;horizontal=0;startSize=0;swimlaneHead=0;swimlaneBody=0;fillColor=none;collapsible=0;dropTarget=0;points=[[0,0.5],[1,0.5]];portConstraint=eastwest;top=0;left=0;right=0;bottom=0;fontSize=14;" vertex="1" parent="XrexaI2c7xQN46WVtd9s-31">
          <mxGeometry y="150" width="180" height="30" as="geometry" />
        </mxCell>
        <mxCell id="XrexaI2c7xQN46WVtd9s-177" value="" style="shape=partialRectangle;connectable=0;fillColor=none;top=0;left=0;bottom=0;right=0;editable=1;overflow=hidden;whiteSpace=wrap;html=1;fontSize=14;" vertex="1" parent="XrexaI2c7xQN46WVtd9s-176">
          <mxGeometry width="25.75" height="30" as="geometry">
            <mxRectangle width="25.75" height="30" as="alternateBounds" />
          </mxGeometry>
        </mxCell>
        <mxCell id="XrexaI2c7xQN46WVtd9s-178" value="category_id" style="shape=partialRectangle;connectable=0;fillColor=none;top=0;left=0;bottom=0;right=0;align=left;spacingLeft=6;overflow=hidden;whiteSpace=wrap;html=1;fontSize=14;" vertex="1" parent="XrexaI2c7xQN46WVtd9s-176">
          <mxGeometry x="25.75" width="154.25" height="30" as="geometry">
            <mxRectangle width="154.25" height="30" as="alternateBounds" />
          </mxGeometry>
        </mxCell>
        <mxCell id="XrexaI2c7xQN46WVtd9s-179" value="" style="shape=tableRow;horizontal=0;startSize=0;swimlaneHead=0;swimlaneBody=0;fillColor=none;collapsible=0;dropTarget=0;points=[[0,0.5],[1,0.5]];portConstraint=eastwest;top=0;left=0;right=0;bottom=0;fontSize=14;" vertex="1" parent="XrexaI2c7xQN46WVtd9s-31">
          <mxGeometry y="180" width="180" height="30" as="geometry" />
        </mxCell>
        <mxCell id="XrexaI2c7xQN46WVtd9s-180" value="" style="shape=partialRectangle;connectable=0;fillColor=none;top=0;left=0;bottom=0;right=0;editable=1;overflow=hidden;whiteSpace=wrap;html=1;fontSize=14;" vertex="1" parent="XrexaI2c7xQN46WVtd9s-179">
          <mxGeometry width="25.75" height="30" as="geometry">
            <mxRectangle width="25.75" height="30" as="alternateBounds" />
          </mxGeometry>
        </mxCell>
        <mxCell id="XrexaI2c7xQN46WVtd9s-181" value="category" style="shape=partialRectangle;connectable=0;fillColor=none;top=0;left=0;bottom=0;right=0;align=left;spacingLeft=6;overflow=hidden;whiteSpace=wrap;html=1;fontSize=14;" vertex="1" parent="XrexaI2c7xQN46WVtd9s-179">
          <mxGeometry x="25.75" width="154.25" height="30" as="geometry">
            <mxRectangle width="154.25" height="30" as="alternateBounds" />
          </mxGeometry>
        </mxCell>
        <mxCell id="XrexaI2c7xQN46WVtd9s-182" value="" style="shape=tableRow;horizontal=0;startSize=0;swimlaneHead=0;swimlaneBody=0;fillColor=none;collapsible=0;dropTarget=0;points=[[0,0.5],[1,0.5]];portConstraint=eastwest;top=0;left=0;right=0;bottom=0;fontSize=14;" vertex="1" parent="XrexaI2c7xQN46WVtd9s-31">
          <mxGeometry y="210" width="180" height="30" as="geometry" />
        </mxCell>
        <mxCell id="XrexaI2c7xQN46WVtd9s-183" value="" style="shape=partialRectangle;connectable=0;fillColor=none;top=0;left=0;bottom=0;right=0;editable=1;overflow=hidden;whiteSpace=wrap;html=1;fontSize=14;" vertex="1" parent="XrexaI2c7xQN46WVtd9s-182">
          <mxGeometry width="25.75" height="30" as="geometry">
            <mxRectangle width="25.75" height="30" as="alternateBounds" />
          </mxGeometry>
        </mxCell>
        <mxCell id="XrexaI2c7xQN46WVtd9s-184" value="subcategory" style="shape=partialRectangle;connectable=0;fillColor=none;top=0;left=0;bottom=0;right=0;align=left;spacingLeft=6;overflow=hidden;whiteSpace=wrap;html=1;fontSize=14;" vertex="1" parent="XrexaI2c7xQN46WVtd9s-182">
          <mxGeometry x="25.75" width="154.25" height="30" as="geometry">
            <mxRectangle width="154.25" height="30" as="alternateBounds" />
          </mxGeometry>
        </mxCell>
        <mxCell id="XrexaI2c7xQN46WVtd9s-185" value="" style="shape=tableRow;horizontal=0;startSize=0;swimlaneHead=0;swimlaneBody=0;fillColor=none;collapsible=0;dropTarget=0;points=[[0,0.5],[1,0.5]];portConstraint=eastwest;top=0;left=0;right=0;bottom=0;fontSize=14;" vertex="1" parent="XrexaI2c7xQN46WVtd9s-31">
          <mxGeometry y="240" width="180" height="30" as="geometry" />
        </mxCell>
        <mxCell id="XrexaI2c7xQN46WVtd9s-186" value="" style="shape=partialRectangle;connectable=0;fillColor=none;top=0;left=0;bottom=0;right=0;editable=1;overflow=hidden;whiteSpace=wrap;html=1;fontSize=14;" vertex="1" parent="XrexaI2c7xQN46WVtd9s-185">
          <mxGeometry width="25.75" height="30" as="geometry">
            <mxRectangle width="25.75" height="30" as="alternateBounds" />
          </mxGeometry>
        </mxCell>
        <mxCell id="XrexaI2c7xQN46WVtd9s-187" value="maintenance" style="shape=partialRectangle;connectable=0;fillColor=none;top=0;left=0;bottom=0;right=0;align=left;spacingLeft=6;overflow=hidden;whiteSpace=wrap;html=1;fontSize=14;" vertex="1" parent="XrexaI2c7xQN46WVtd9s-185">
          <mxGeometry x="25.75" width="154.25" height="30" as="geometry">
            <mxRectangle width="154.25" height="30" as="alternateBounds" />
          </mxGeometry>
        </mxCell>
        <mxCell id="XrexaI2c7xQN46WVtd9s-188" value="" style="shape=tableRow;horizontal=0;startSize=0;swimlaneHead=0;swimlaneBody=0;fillColor=none;collapsible=0;dropTarget=0;points=[[0,0.5],[1,0.5]];portConstraint=eastwest;top=0;left=0;right=0;bottom=0;fontSize=14;" vertex="1" parent="XrexaI2c7xQN46WVtd9s-31">
          <mxGeometry y="270" width="180" height="30" as="geometry" />
        </mxCell>
        <mxCell id="XrexaI2c7xQN46WVtd9s-189" value="" style="shape=partialRectangle;connectable=0;fillColor=none;top=0;left=0;bottom=0;right=0;editable=1;overflow=hidden;whiteSpace=wrap;html=1;fontSize=14;" vertex="1" parent="XrexaI2c7xQN46WVtd9s-188">
          <mxGeometry width="25.75" height="30" as="geometry">
            <mxRectangle width="25.75" height="30" as="alternateBounds" />
          </mxGeometry>
        </mxCell>
        <mxCell id="XrexaI2c7xQN46WVtd9s-190" value="product_cost" style="shape=partialRectangle;connectable=0;fillColor=none;top=0;left=0;bottom=0;right=0;align=left;spacingLeft=6;overflow=hidden;whiteSpace=wrap;html=1;fontSize=14;" vertex="1" parent="XrexaI2c7xQN46WVtd9s-188">
          <mxGeometry x="25.75" width="154.25" height="30" as="geometry">
            <mxRectangle width="154.25" height="30" as="alternateBounds" />
          </mxGeometry>
        </mxCell>
        <mxCell id="XrexaI2c7xQN46WVtd9s-191" value="" style="shape=tableRow;horizontal=0;startSize=0;swimlaneHead=0;swimlaneBody=0;fillColor=none;collapsible=0;dropTarget=0;points=[[0,0.5],[1,0.5]];portConstraint=eastwest;top=0;left=0;right=0;bottom=0;fontSize=14;" vertex="1" parent="XrexaI2c7xQN46WVtd9s-31">
          <mxGeometry y="300" width="180" height="30" as="geometry" />
        </mxCell>
        <mxCell id="XrexaI2c7xQN46WVtd9s-192" value="" style="shape=partialRectangle;connectable=0;fillColor=none;top=0;left=0;bottom=0;right=0;editable=1;overflow=hidden;whiteSpace=wrap;html=1;fontSize=14;" vertex="1" parent="XrexaI2c7xQN46WVtd9s-191">
          <mxGeometry width="25.75" height="30" as="geometry">
            <mxRectangle width="25.75" height="30" as="alternateBounds" />
          </mxGeometry>
        </mxCell>
        <mxCell id="XrexaI2c7xQN46WVtd9s-193" value="product_line" style="shape=partialRectangle;connectable=0;fillColor=none;top=0;left=0;bottom=0;right=0;align=left;spacingLeft=6;overflow=hidden;whiteSpace=wrap;html=1;fontSize=14;" vertex="1" parent="XrexaI2c7xQN46WVtd9s-191">
          <mxGeometry x="25.75" width="154.25" height="30" as="geometry">
            <mxRectangle width="154.25" height="30" as="alternateBounds" />
          </mxGeometry>
        </mxCell>
        <mxCell id="XrexaI2c7xQN46WVtd9s-194" value="" style="shape=tableRow;horizontal=0;startSize=0;swimlaneHead=0;swimlaneBody=0;fillColor=none;collapsible=0;dropTarget=0;points=[[0,0.5],[1,0.5]];portConstraint=eastwest;top=0;left=0;right=0;bottom=0;fontSize=14;" vertex="1" parent="XrexaI2c7xQN46WVtd9s-31">
          <mxGeometry y="330" width="180" height="30" as="geometry" />
        </mxCell>
        <mxCell id="XrexaI2c7xQN46WVtd9s-195" value="" style="shape=partialRectangle;connectable=0;fillColor=none;top=0;left=0;bottom=0;right=0;editable=1;overflow=hidden;whiteSpace=wrap;html=1;fontSize=14;" vertex="1" parent="XrexaI2c7xQN46WVtd9s-194">
          <mxGeometry width="25.75" height="30" as="geometry">
            <mxRectangle width="25.75" height="30" as="alternateBounds" />
          </mxGeometry>
        </mxCell>
        <mxCell id="XrexaI2c7xQN46WVtd9s-196" value="start_date" style="shape=partialRectangle;connectable=0;fillColor=none;top=0;left=0;bottom=0;right=0;align=left;spacingLeft=6;overflow=hidden;whiteSpace=wrap;html=1;fontSize=14;" vertex="1" parent="XrexaI2c7xQN46WVtd9s-194">
          <mxGeometry x="25.75" width="154.25" height="30" as="geometry">
            <mxRectangle width="154.25" height="30" as="alternateBounds" />
          </mxGeometry>
        </mxCell>
        <mxCell id="XrexaI2c7xQN46WVtd9s-66" value="" style="group;fontSize=14;" vertex="1" connectable="0" parent="1">
          <mxGeometry x="230" y="260" width="180" height="330" as="geometry" />
        </mxCell>
        <mxCell id="XrexaI2c7xQN46WVtd9s-12" value="gold.dim_customers" style="shape=table;startSize=30;container=1;collapsible=1;childLayout=tableLayout;fixedRows=1;rowLines=0;fontStyle=1;align=center;resizeLast=1;html=1;fillColor=#fff2cc;strokeColor=#d6b656;rounded=1;fontSize=14;" vertex="1" parent="XrexaI2c7xQN46WVtd9s-66">
          <mxGeometry width="180" height="330" as="geometry" />
        </mxCell>
        <mxCell id="XrexaI2c7xQN46WVtd9s-13" value="" style="shape=tableRow;horizontal=0;startSize=0;swimlaneHead=0;swimlaneBody=0;fillColor=none;collapsible=0;dropTarget=0;points=[[0,0.5],[1,0.5]];portConstraint=eastwest;top=0;left=0;right=0;bottom=1;fontSize=14;" vertex="1" parent="XrexaI2c7xQN46WVtd9s-12">
          <mxGeometry y="30" width="180" height="30" as="geometry" />
        </mxCell>
        <mxCell id="XrexaI2c7xQN46WVtd9s-14" value="PK" style="shape=partialRectangle;connectable=0;fillColor=none;top=0;left=0;bottom=0;right=0;fontStyle=1;overflow=hidden;whiteSpace=wrap;html=1;fontSize=14;" vertex="1" parent="XrexaI2c7xQN46WVtd9s-13">
          <mxGeometry width="30" height="30" as="geometry">
            <mxRectangle width="30" height="30" as="alternateBounds" />
          </mxGeometry>
        </mxCell>
        <mxCell id="XrexaI2c7xQN46WVtd9s-15" value="customer_key" style="shape=partialRectangle;connectable=0;fillColor=none;top=0;left=0;bottom=0;right=0;align=left;spacingLeft=6;fontStyle=5;overflow=hidden;whiteSpace=wrap;html=1;fontSize=14;" vertex="1" parent="XrexaI2c7xQN46WVtd9s-13">
          <mxGeometry x="30" width="150" height="30" as="geometry">
            <mxRectangle width="150" height="30" as="alternateBounds" />
          </mxGeometry>
        </mxCell>
        <mxCell id="XrexaI2c7xQN46WVtd9s-16" value="" style="shape=tableRow;horizontal=0;startSize=0;swimlaneHead=0;swimlaneBody=0;fillColor=none;collapsible=0;dropTarget=0;points=[[0,0.5],[1,0.5]];portConstraint=eastwest;top=0;left=0;right=0;bottom=0;fontSize=14;" vertex="1" parent="XrexaI2c7xQN46WVtd9s-12">
          <mxGeometry y="60" width="180" height="30" as="geometry" />
        </mxCell>
        <mxCell id="XrexaI2c7xQN46WVtd9s-17" value="" style="shape=partialRectangle;connectable=0;fillColor=none;top=0;left=0;bottom=0;right=0;editable=1;overflow=hidden;whiteSpace=wrap;html=1;fontSize=14;" vertex="1" parent="XrexaI2c7xQN46WVtd9s-16">
          <mxGeometry width="30" height="30" as="geometry">
            <mxRectangle width="30" height="30" as="alternateBounds" />
          </mxGeometry>
        </mxCell>
        <mxCell id="XrexaI2c7xQN46WVtd9s-18" value="customer_id" style="shape=partialRectangle;connectable=0;fillColor=none;top=0;left=0;bottom=0;right=0;align=left;spacingLeft=6;overflow=hidden;whiteSpace=wrap;html=1;fontSize=14;" vertex="1" parent="XrexaI2c7xQN46WVtd9s-16">
          <mxGeometry x="30" width="150" height="30" as="geometry">
            <mxRectangle width="150" height="30" as="alternateBounds" />
          </mxGeometry>
        </mxCell>
        <mxCell id="XrexaI2c7xQN46WVtd9s-19" value="" style="shape=tableRow;horizontal=0;startSize=0;swimlaneHead=0;swimlaneBody=0;fillColor=none;collapsible=0;dropTarget=0;points=[[0,0.5],[1,0.5]];portConstraint=eastwest;top=0;left=0;right=0;bottom=0;fontSize=14;" vertex="1" parent="XrexaI2c7xQN46WVtd9s-12">
          <mxGeometry y="90" width="180" height="30" as="geometry" />
        </mxCell>
        <mxCell id="XrexaI2c7xQN46WVtd9s-20" value="" style="shape=partialRectangle;connectable=0;fillColor=none;top=0;left=0;bottom=0;right=0;editable=1;overflow=hidden;whiteSpace=wrap;html=1;fontSize=14;" vertex="1" parent="XrexaI2c7xQN46WVtd9s-19">
          <mxGeometry width="30" height="30" as="geometry">
            <mxRectangle width="30" height="30" as="alternateBounds" />
          </mxGeometry>
        </mxCell>
        <mxCell id="XrexaI2c7xQN46WVtd9s-21" value="customer_number" style="shape=partialRectangle;connectable=0;fillColor=none;top=0;left=0;bottom=0;right=0;align=left;spacingLeft=6;overflow=hidden;whiteSpace=wrap;html=1;fontSize=14;" vertex="1" parent="XrexaI2c7xQN46WVtd9s-19">
          <mxGeometry x="30" width="150" height="30" as="geometry">
            <mxRectangle width="150" height="30" as="alternateBounds" />
          </mxGeometry>
        </mxCell>
        <mxCell id="XrexaI2c7xQN46WVtd9s-22" value="" style="shape=tableRow;horizontal=0;startSize=0;swimlaneHead=0;swimlaneBody=0;fillColor=none;collapsible=0;dropTarget=0;points=[[0,0.5],[1,0.5]];portConstraint=eastwest;top=0;left=0;right=0;bottom=0;fontSize=14;" vertex="1" parent="XrexaI2c7xQN46WVtd9s-12">
          <mxGeometry y="120" width="180" height="30" as="geometry" />
        </mxCell>
        <mxCell id="XrexaI2c7xQN46WVtd9s-23" value="" style="shape=partialRectangle;connectable=0;fillColor=none;top=0;left=0;bottom=0;right=0;editable=1;overflow=hidden;whiteSpace=wrap;html=1;fontSize=14;" vertex="1" parent="XrexaI2c7xQN46WVtd9s-22">
          <mxGeometry width="30" height="30" as="geometry">
            <mxRectangle width="30" height="30" as="alternateBounds" />
          </mxGeometry>
        </mxCell>
        <mxCell id="XrexaI2c7xQN46WVtd9s-24" value="first_name" style="shape=partialRectangle;connectable=0;fillColor=none;top=0;left=0;bottom=0;right=0;align=left;spacingLeft=6;overflow=hidden;whiteSpace=wrap;html=1;fontSize=14;" vertex="1" parent="XrexaI2c7xQN46WVtd9s-22">
          <mxGeometry x="30" width="150" height="30" as="geometry">
            <mxRectangle width="150" height="30" as="alternateBounds" />
          </mxGeometry>
        </mxCell>
        <mxCell id="XrexaI2c7xQN46WVtd9s-25" value="last_name" style="shape=partialRectangle;connectable=0;fillColor=none;top=0;left=1;bottom=0;right=0;align=left;spacingLeft=6;overflow=hidden;whiteSpace=wrap;html=1;strokeColor=#D79B00;fontSize=14;" vertex="1" parent="XrexaI2c7xQN46WVtd9s-66">
          <mxGeometry x="30" y="150" width="150" height="30" as="geometry">
            <mxRectangle width="150" height="30" as="alternateBounds" />
          </mxGeometry>
        </mxCell>
        <mxCell id="XrexaI2c7xQN46WVtd9s-26" value="country" style="shape=partialRectangle;connectable=0;fillColor=none;top=0;left=1;bottom=0;right=0;align=left;spacingLeft=6;overflow=hidden;whiteSpace=wrap;html=1;strokeColor=#D79B00;fontSize=14;" vertex="1" parent="XrexaI2c7xQN46WVtd9s-66">
          <mxGeometry x="30" y="180" width="150" height="30" as="geometry">
            <mxRectangle width="150" height="30" as="alternateBounds" />
          </mxGeometry>
        </mxCell>
        <mxCell id="XrexaI2c7xQN46WVtd9s-27" value="marital_status" style="shape=partialRectangle;connectable=0;fillColor=none;top=0;left=1;bottom=0;right=0;align=left;spacingLeft=6;overflow=hidden;whiteSpace=wrap;html=1;strokeColor=#D79B00;fontSize=14;" vertex="1" parent="XrexaI2c7xQN46WVtd9s-66">
          <mxGeometry x="30" y="210" width="150" height="30" as="geometry">
            <mxRectangle width="150" height="30" as="alternateBounds" />
          </mxGeometry>
        </mxCell>
        <mxCell id="XrexaI2c7xQN46WVtd9s-28" value="gender" style="shape=partialRectangle;connectable=0;fillColor=none;top=0;left=1;bottom=0;right=0;align=left;spacingLeft=6;overflow=hidden;whiteSpace=wrap;html=1;strokeColor=#D79B00;fontSize=14;" vertex="1" parent="XrexaI2c7xQN46WVtd9s-66">
          <mxGeometry x="30" y="240" width="150" height="30" as="geometry">
            <mxRectangle width="150" height="30" as="alternateBounds" />
          </mxGeometry>
        </mxCell>
        <mxCell id="XrexaI2c7xQN46WVtd9s-29" value="birthdate" style="shape=partialRectangle;connectable=0;fillColor=none;top=0;left=1;bottom=0;right=0;align=left;spacingLeft=6;overflow=hidden;whiteSpace=wrap;html=1;strokeColor=#D79B00;fontSize=14;" vertex="1" parent="XrexaI2c7xQN46WVtd9s-66">
          <mxGeometry x="30" y="270" width="150" height="30" as="geometry">
            <mxRectangle width="150" height="30" as="alternateBounds" />
          </mxGeometry>
        </mxCell>
        <mxCell id="XrexaI2c7xQN46WVtd9s-30" value="create_date" style="shape=partialRectangle;connectable=0;fillColor=none;top=0;left=1;bottom=0;right=0;align=left;spacingLeft=6;overflow=hidden;whiteSpace=wrap;html=1;strokeColor=#D79B00;fontSize=14;" vertex="1" parent="XrexaI2c7xQN46WVtd9s-66">
          <mxGeometry x="30" y="300" width="150" height="30" as="geometry">
            <mxRectangle width="150" height="30" as="alternateBounds" />
          </mxGeometry>
        </mxCell>
        <mxCell id="XrexaI2c7xQN46WVtd9s-120" value="gold.fact_sales" style="shape=table;startSize=30;container=1;collapsible=1;childLayout=tableLayout;fixedRows=1;rowLines=0;fontStyle=1;align=center;resizeLast=1;html=1;fillColor=#dae8fc;strokeColor=#6c8ebf;rounded=1;fontSize=14;" vertex="1" parent="1">
          <mxGeometry x="602" y="257" width="180" height="300" as="geometry" />
        </mxCell>
        <mxCell id="XrexaI2c7xQN46WVtd9s-124" value="" style="shape=tableRow;horizontal=0;startSize=0;swimlaneHead=0;swimlaneBody=0;fillColor=none;collapsible=0;dropTarget=0;points=[[0,0.5],[1,0.5]];portConstraint=eastwest;top=0;left=0;right=0;bottom=0;fontSize=14;" vertex="1" parent="XrexaI2c7xQN46WVtd9s-120">
          <mxGeometry y="30" width="180" height="30" as="geometry" />
        </mxCell>
        <mxCell id="XrexaI2c7xQN46WVtd9s-125" value="" style="shape=partialRectangle;connectable=0;fillColor=none;top=0;left=0;bottom=0;right=0;editable=1;overflow=hidden;whiteSpace=wrap;html=1;fontSize=14;" vertex="1" parent="XrexaI2c7xQN46WVtd9s-124">
          <mxGeometry width="33.75" height="30" as="geometry">
            <mxRectangle width="33.75" height="30" as="alternateBounds" />
          </mxGeometry>
        </mxCell>
        <mxCell id="XrexaI2c7xQN46WVtd9s-126" value="order_number" style="shape=partialRectangle;connectable=0;fillColor=none;top=0;left=0;bottom=0;right=0;align=left;spacingLeft=6;overflow=hidden;whiteSpace=wrap;html=1;fontSize=14;" vertex="1" parent="XrexaI2c7xQN46WVtd9s-124">
          <mxGeometry x="33.75" width="146.25" height="30" as="geometry">
            <mxRectangle width="146.25" height="30" as="alternateBounds" />
          </mxGeometry>
        </mxCell>
        <mxCell id="XrexaI2c7xQN46WVtd9s-127" value="" style="shape=tableRow;horizontal=0;startSize=0;swimlaneHead=0;swimlaneBody=0;fillColor=none;collapsible=0;dropTarget=0;points=[[0,0.5],[1,0.5]];portConstraint=eastwest;top=0;left=0;right=0;bottom=0;fontSize=14;" vertex="1" parent="XrexaI2c7xQN46WVtd9s-120">
          <mxGeometry y="60" width="180" height="30" as="geometry" />
        </mxCell>
        <mxCell id="XrexaI2c7xQN46WVtd9s-128" value="FK1" style="shape=partialRectangle;connectable=0;fillColor=none;top=0;left=0;bottom=0;right=0;editable=1;overflow=hidden;whiteSpace=wrap;html=1;fontSize=14;" vertex="1" parent="XrexaI2c7xQN46WVtd9s-127">
          <mxGeometry width="33.75" height="30" as="geometry">
            <mxRectangle width="33.75" height="30" as="alternateBounds" />
          </mxGeometry>
        </mxCell>
        <mxCell id="XrexaI2c7xQN46WVtd9s-129" value="product_key" style="shape=partialRectangle;connectable=0;fillColor=none;top=0;left=0;bottom=0;right=0;align=left;spacingLeft=6;overflow=hidden;whiteSpace=wrap;html=1;fontSize=14;" vertex="1" parent="XrexaI2c7xQN46WVtd9s-127">
          <mxGeometry x="33.75" width="146.25" height="30" as="geometry">
            <mxRectangle width="146.25" height="30" as="alternateBounds" />
          </mxGeometry>
        </mxCell>
        <mxCell id="XrexaI2c7xQN46WVtd9s-130" value="" style="shape=tableRow;horizontal=0;startSize=0;swimlaneHead=0;swimlaneBody=0;fillColor=none;collapsible=0;dropTarget=0;points=[[0,0.5],[1,0.5]];portConstraint=eastwest;top=0;left=0;right=0;bottom=0;fontSize=14;" vertex="1" parent="XrexaI2c7xQN46WVtd9s-120">
          <mxGeometry y="90" width="180" height="30" as="geometry" />
        </mxCell>
        <mxCell id="XrexaI2c7xQN46WVtd9s-131" value="FK2" style="shape=partialRectangle;connectable=0;fillColor=none;top=0;left=0;bottom=0;right=0;editable=1;overflow=hidden;whiteSpace=wrap;html=1;fontSize=14;" vertex="1" parent="XrexaI2c7xQN46WVtd9s-130">
          <mxGeometry width="33.75" height="30" as="geometry">
            <mxRectangle width="33.75" height="30" as="alternateBounds" />
          </mxGeometry>
        </mxCell>
        <mxCell id="XrexaI2c7xQN46WVtd9s-132" value="customer_key" style="shape=partialRectangle;connectable=0;fillColor=none;top=0;left=0;bottom=0;right=0;align=left;spacingLeft=6;overflow=hidden;whiteSpace=wrap;html=1;fontSize=14;" vertex="1" parent="XrexaI2c7xQN46WVtd9s-130">
          <mxGeometry x="33.75" width="146.25" height="30" as="geometry">
            <mxRectangle width="146.25" height="30" as="alternateBounds" />
          </mxGeometry>
        </mxCell>
        <mxCell id="XrexaI2c7xQN46WVtd9s-133" value="" style="shape=tableRow;horizontal=0;startSize=0;swimlaneHead=0;swimlaneBody=0;fillColor=none;collapsible=0;dropTarget=0;points=[[0,0.5],[1,0.5]];portConstraint=eastwest;top=0;left=0;right=0;bottom=0;fontSize=14;" vertex="1" parent="XrexaI2c7xQN46WVtd9s-120">
          <mxGeometry y="120" width="180" height="30" as="geometry" />
        </mxCell>
        <mxCell id="XrexaI2c7xQN46WVtd9s-134" value="" style="shape=partialRectangle;connectable=0;fillColor=none;top=0;left=0;bottom=0;right=0;editable=1;overflow=hidden;whiteSpace=wrap;html=1;fontSize=14;" vertex="1" parent="XrexaI2c7xQN46WVtd9s-133">
          <mxGeometry width="33.75" height="30" as="geometry">
            <mxRectangle width="33.75" height="30" as="alternateBounds" />
          </mxGeometry>
        </mxCell>
        <mxCell id="XrexaI2c7xQN46WVtd9s-135" value="order_date" style="shape=partialRectangle;connectable=0;fillColor=none;top=0;left=0;bottom=0;right=0;align=left;spacingLeft=6;overflow=hidden;whiteSpace=wrap;html=1;fontSize=14;" vertex="1" parent="XrexaI2c7xQN46WVtd9s-133">
          <mxGeometry x="33.75" width="146.25" height="30" as="geometry">
            <mxRectangle width="146.25" height="30" as="alternateBounds" />
          </mxGeometry>
        </mxCell>
        <mxCell id="XrexaI2c7xQN46WVtd9s-136" value="" style="shape=tableRow;horizontal=0;startSize=0;swimlaneHead=0;swimlaneBody=0;fillColor=none;collapsible=0;dropTarget=0;points=[[0,0.5],[1,0.5]];portConstraint=eastwest;top=0;left=0;right=0;bottom=0;fontSize=14;" vertex="1" parent="XrexaI2c7xQN46WVtd9s-120">
          <mxGeometry y="150" width="180" height="30" as="geometry" />
        </mxCell>
        <mxCell id="XrexaI2c7xQN46WVtd9s-137" value="" style="shape=partialRectangle;connectable=0;fillColor=none;top=0;left=0;bottom=0;right=0;editable=1;overflow=hidden;whiteSpace=wrap;html=1;fontSize=14;" vertex="1" parent="XrexaI2c7xQN46WVtd9s-136">
          <mxGeometry width="33.75" height="30" as="geometry">
            <mxRectangle width="33.75" height="30" as="alternateBounds" />
          </mxGeometry>
        </mxCell>
        <mxCell id="XrexaI2c7xQN46WVtd9s-138" value="shipping_date" style="shape=partialRectangle;connectable=0;fillColor=none;top=0;left=0;bottom=0;right=0;align=left;spacingLeft=6;overflow=hidden;whiteSpace=wrap;html=1;fontSize=14;" vertex="1" parent="XrexaI2c7xQN46WVtd9s-136">
          <mxGeometry x="33.75" width="146.25" height="30" as="geometry">
            <mxRectangle width="146.25" height="30" as="alternateBounds" />
          </mxGeometry>
        </mxCell>
        <mxCell id="XrexaI2c7xQN46WVtd9s-139" value="" style="shape=tableRow;horizontal=0;startSize=0;swimlaneHead=0;swimlaneBody=0;fillColor=none;collapsible=0;dropTarget=0;points=[[0,0.5],[1,0.5]];portConstraint=eastwest;top=0;left=0;right=0;bottom=0;fontSize=14;" vertex="1" parent="XrexaI2c7xQN46WVtd9s-120">
          <mxGeometry y="180" width="180" height="30" as="geometry" />
        </mxCell>
        <mxCell id="XrexaI2c7xQN46WVtd9s-140" value="" style="shape=partialRectangle;connectable=0;fillColor=none;top=0;left=0;bottom=0;right=0;editable=1;overflow=hidden;whiteSpace=wrap;html=1;fontSize=14;" vertex="1" parent="XrexaI2c7xQN46WVtd9s-139">
          <mxGeometry width="33.75" height="30" as="geometry">
            <mxRectangle width="33.75" height="30" as="alternateBounds" />
          </mxGeometry>
        </mxCell>
        <mxCell id="XrexaI2c7xQN46WVtd9s-141" value="due_date" style="shape=partialRectangle;connectable=0;fillColor=none;top=0;left=0;bottom=0;right=0;align=left;spacingLeft=6;overflow=hidden;whiteSpace=wrap;html=1;fontSize=14;" vertex="1" parent="XrexaI2c7xQN46WVtd9s-139">
          <mxGeometry x="33.75" width="146.25" height="30" as="geometry">
            <mxRectangle width="146.25" height="30" as="alternateBounds" />
          </mxGeometry>
        </mxCell>
        <mxCell id="XrexaI2c7xQN46WVtd9s-142" value="" style="shape=tableRow;horizontal=0;startSize=0;swimlaneHead=0;swimlaneBody=0;fillColor=none;collapsible=0;dropTarget=0;points=[[0,0.5],[1,0.5]];portConstraint=eastwest;top=0;left=0;right=0;bottom=0;fontSize=14;" vertex="1" parent="XrexaI2c7xQN46WVtd9s-120">
          <mxGeometry y="210" width="180" height="30" as="geometry" />
        </mxCell>
        <mxCell id="XrexaI2c7xQN46WVtd9s-143" value="" style="shape=partialRectangle;connectable=0;fillColor=none;top=0;left=0;bottom=0;right=0;editable=1;overflow=hidden;whiteSpace=wrap;html=1;fontSize=14;" vertex="1" parent="XrexaI2c7xQN46WVtd9s-142">
          <mxGeometry width="33.75" height="30" as="geometry">
            <mxRectangle width="33.75" height="30" as="alternateBounds" />
          </mxGeometry>
        </mxCell>
        <mxCell id="XrexaI2c7xQN46WVtd9s-144" value="sales_amount" style="shape=partialRectangle;connectable=0;fillColor=none;top=0;left=0;bottom=0;right=0;align=left;spacingLeft=6;overflow=hidden;whiteSpace=wrap;html=1;fontSize=14;" vertex="1" parent="XrexaI2c7xQN46WVtd9s-142">
          <mxGeometry x="33.75" width="146.25" height="30" as="geometry">
            <mxRectangle width="146.25" height="30" as="alternateBounds" />
          </mxGeometry>
        </mxCell>
        <mxCell id="XrexaI2c7xQN46WVtd9s-145" value="" style="shape=tableRow;horizontal=0;startSize=0;swimlaneHead=0;swimlaneBody=0;fillColor=none;collapsible=0;dropTarget=0;points=[[0,0.5],[1,0.5]];portConstraint=eastwest;top=0;left=0;right=0;bottom=0;fontSize=14;" vertex="1" parent="XrexaI2c7xQN46WVtd9s-120">
          <mxGeometry y="240" width="180" height="30" as="geometry" />
        </mxCell>
        <mxCell id="XrexaI2c7xQN46WVtd9s-146" value="" style="shape=partialRectangle;connectable=0;fillColor=none;top=0;left=0;bottom=0;right=0;editable=1;overflow=hidden;whiteSpace=wrap;html=1;fontSize=14;" vertex="1" parent="XrexaI2c7xQN46WVtd9s-145">
          <mxGeometry width="33.75" height="30" as="geometry">
            <mxRectangle width="33.75" height="30" as="alternateBounds" />
          </mxGeometry>
        </mxCell>
        <mxCell id="XrexaI2c7xQN46WVtd9s-147" value="quantity" style="shape=partialRectangle;connectable=0;fillColor=none;top=0;left=0;bottom=0;right=0;align=left;spacingLeft=6;overflow=hidden;whiteSpace=wrap;html=1;fontSize=14;" vertex="1" parent="XrexaI2c7xQN46WVtd9s-145">
          <mxGeometry x="33.75" width="146.25" height="30" as="geometry">
            <mxRectangle width="146.25" height="30" as="alternateBounds" />
          </mxGeometry>
        </mxCell>
        <mxCell id="XrexaI2c7xQN46WVtd9s-173" value="" style="shape=tableRow;horizontal=0;startSize=0;swimlaneHead=0;swimlaneBody=0;fillColor=none;collapsible=0;dropTarget=0;points=[[0,0.5],[1,0.5]];portConstraint=eastwest;top=0;left=0;right=0;bottom=0;fontSize=14;" vertex="1" parent="XrexaI2c7xQN46WVtd9s-120">
          <mxGeometry y="270" width="180" height="30" as="geometry" />
        </mxCell>
        <mxCell id="XrexaI2c7xQN46WVtd9s-174" value="" style="shape=partialRectangle;connectable=0;fillColor=none;top=0;left=0;bottom=0;right=0;editable=1;overflow=hidden;whiteSpace=wrap;html=1;fontSize=14;" vertex="1" parent="XrexaI2c7xQN46WVtd9s-173">
          <mxGeometry width="33.75" height="30" as="geometry">
            <mxRectangle width="33.75" height="30" as="alternateBounds" />
          </mxGeometry>
        </mxCell>
        <mxCell id="XrexaI2c7xQN46WVtd9s-175" value="price" style="shape=partialRectangle;connectable=0;fillColor=none;top=0;left=0;bottom=0;right=0;align=left;spacingLeft=6;overflow=hidden;whiteSpace=wrap;html=1;fontSize=14;" vertex="1" parent="XrexaI2c7xQN46WVtd9s-173">
          <mxGeometry x="33.75" width="146.25" height="30" as="geometry">
            <mxRectangle width="146.25" height="30" as="alternateBounds" />
          </mxGeometry>
        </mxCell>
        <mxCell id="XrexaI2c7xQN46WVtd9s-197" value="" style="edgeStyle=entityRelationEdgeStyle;fontSize=12;html=1;endArrow=ERzeroToMany;startArrow=ERmandOne;rounded=0;exitX=1;exitY=0.5;exitDx=0;exitDy=0;entryX=0;entryY=0.5;entryDx=0;entryDy=0;" edge="1" parent="1" source="XrexaI2c7xQN46WVtd9s-13" target="XrexaI2c7xQN46WVtd9s-130">
          <mxGeometry width="100" height="100" relative="1" as="geometry">
            <mxPoint x="447" y="427" as="sourcePoint" />
            <mxPoint x="547" y="327" as="targetPoint" />
          </mxGeometry>
        </mxCell>
        <mxCell id="XrexaI2c7xQN46WVtd9s-198" value="" style="edgeStyle=entityRelationEdgeStyle;fontSize=12;html=1;endArrow=ERzeroToMany;startArrow=ERmandOne;rounded=0;exitX=0;exitY=0.5;exitDx=0;exitDy=0;entryX=1;entryY=0.5;entryDx=0;entryDy=0;" edge="1" parent="1" source="XrexaI2c7xQN46WVtd9s-32" target="XrexaI2c7xQN46WVtd9s-127">
          <mxGeometry width="100" height="100" relative="1" as="geometry">
            <mxPoint x="803" y="349" as="sourcePoint" />
            <mxPoint x="995" y="406" as="targetPoint" />
          </mxGeometry>
        </mxCell>
        <mxCell id="XrexaI2c7xQN46WVtd9s-199" value="&lt;h1 style=&quot;margin-top: 0px;&quot;&gt;&lt;font style=&quot;font-size: 18px;&quot;&gt;&lt;u&gt;Sales Calculation&lt;/u&gt;&lt;/font&gt;&lt;/h1&gt;&lt;p&gt;Sales = Quantity * Price&lt;/p&gt;" style="text;html=1;whiteSpace=wrap;overflow=hidden;rounded=0;" vertex="1" parent="1">
          <mxGeometry x="693" y="597" width="180" height="120" as="geometry" />
        </mxCell>
        <mxCell id="XrexaI2c7xQN46WVtd9s-200" value="" style="endArrow=none;dashed=1;html=1;dashPattern=1 3;strokeWidth=2;rounded=0;" edge="1" parent="1" source="XrexaI2c7xQN46WVtd9s-199" target="XrexaI2c7xQN46WVtd9s-142">
          <mxGeometry width="50" height="50" relative="1" as="geometry">
            <mxPoint x="806" y="490" as="sourcePoint" />
            <mxPoint x="856" y="440" as="targetPoint" />
          </mxGeometry>
        </mxCell>
      </root>
    </mxGraphModel>
  </diagram>
</mxfile>
